# xmcd CD database file
#
# Track frame offsets:
#	150
#	14644
#	28379
#	38777
#	49078
#	62113
#	74137
#	86897
#	100504
#	111409
#	123580
#	138453
#	150157
#	162922
#	176294
#	188482
#	201683
#	216470
#	228530
#	243610
#	256805
#
# Disc length: 3596 seconds
#
# Revision: 0
# Processed by: cddbd v1.5.2PL0 Copyright (c) Steve Scherf et al.
# Submitted via: CDex 1.70beta2
#
DISCID=3b0e0a15
DTITLE=Stan Getz - 's Wonderful
DYEAR=2018
DGENRE=Jazz
TTITLE0=Early autumn
TTITLE1=Keeper of the flame
TTITLE2=Michelle [Pt. 1]
TTITLE3=Michelle [Pt. 2]
TTITLE4=Stan gets along
TTITLE5=Stan's mood
TTITLE6=Slow
TTITLE7=Fast
TTITLE8=Skull buster
TTITLE9=Ante room
TTITLE10=Pennies from heaven
TTITLE11=Crazy chords
TTITLE12=Indian summer
TTITLE13=Long island sound
TTITLE14=Stardust
TTITLE15=There's a small hotel
TTITLE16=I've got you under my skin
TTITLE17=Goodnight my love
TTITLE18=What's new
TTITLE19=Too marvelous for words
TTITLE20=You stepped out of a dream
EXTD=YEAR: 2018
EXTT0=
EXTT1=
EXTT2=
EXTT3=
EXTT4=
EXTT5=
EXTT6=
EXTT7=
EXTT8=
EXTT9=
EXTT10=
EXTT11=
EXTT12=
EXTT13=
EXTT14=
EXTT15=
EXTT16=
EXTT17=
EXTT18=
EXTT19=
EXTT20=
PLAYORDER=
